<mxfile host="Electron" agent="Mozilla/5.0 (Windows NT 10.0; Win64; x64) AppleWebKit/537.36 (KHTML, like Gecko) draw.io/24.7.17 Chrome/128.0.6613.36 Electron/32.0.1 Safari/537.36" version="24.7.17">
  <diagram name="Страница — 1" id="PLSJO1mCcVHVVyA1x3Id">
    <mxGraphModel dx="1218" dy="1993" grid="1" gridSize="10" guides="1" tooltips="1" connect="1" arrows="1" fold="1" page="1" pageScale="1" pageWidth="827" pageHeight="1169" math="0" shadow="0">
      <root>
        <mxCell id="0" />
        <mxCell id="1" parent="0" />
        <mxCell id="ylI5yJWD_dTLSHbsGG9Z-1" value="Гость" style="shape=umlActor;verticalLabelPosition=bottom;verticalAlign=top;html=1;outlineConnect=0;" parent="1" vertex="1">
          <mxGeometry x="250" y="230" width="30" height="60" as="geometry" />
        </mxCell>
        <mxCell id="sFbhJJMdlW1VuIrdwd_y-16" style="edgeStyle=orthogonalEdgeStyle;rounded=0;orthogonalLoop=1;jettySize=auto;html=1;endArrow=block;endFill=0;" parent="1" edge="1">
          <mxGeometry relative="1" as="geometry">
            <mxPoint x="265" y="450" as="sourcePoint" />
            <mxPoint x="265" y="310" as="targetPoint" />
          </mxGeometry>
        </mxCell>
        <mxCell id="ylI5yJWD_dTLSHbsGG9Z-3" value="Работник" style="shape=umlActor;verticalLabelPosition=bottom;verticalAlign=top;html=1;outlineConnect=0;" parent="1" vertex="1">
          <mxGeometry x="250" y="410" width="30" height="60" as="geometry" />
        </mxCell>
        <mxCell id="sFbhJJMdlW1VuIrdwd_y-1" value="" style="endArrow=none;html=1;rounded=0;entryX=0;entryY=1;entryDx=0;entryDy=0;" parent="1" target="sFbhJJMdlW1VuIrdwd_y-2" edge="1">
          <mxGeometry width="50" height="50" relative="1" as="geometry">
            <mxPoint x="280" y="260" as="sourcePoint" />
            <mxPoint x="390" y="210" as="targetPoint" />
          </mxGeometry>
        </mxCell>
        <mxCell id="sFbhJJMdlW1VuIrdwd_y-2" value="Регистрация" style="ellipse;whiteSpace=wrap;html=1;" parent="1" vertex="1">
          <mxGeometry x="376" y="150" width="75" height="50" as="geometry" />
        </mxCell>
        <mxCell id="sFbhJJMdlW1VuIrdwd_y-3" value="Просмотр вакансий" style="ellipse;whiteSpace=wrap;html=1;" parent="1" vertex="1">
          <mxGeometry x="472.5" y="170" width="75" height="50" as="geometry" />
        </mxCell>
        <mxCell id="sFbhJJMdlW1VuIrdwd_y-4" value="Поиск вакансий" style="ellipse;whiteSpace=wrap;html=1;" parent="1" vertex="1">
          <mxGeometry x="414" y="260" width="75" height="50" as="geometry" />
        </mxCell>
        <mxCell id="sFbhJJMdlW1VuIrdwd_y-5" value="Просмотр новостей&amp;nbsp;" style="ellipse;whiteSpace=wrap;html=1;" parent="1" vertex="1">
          <mxGeometry x="370" y="320" width="80" height="50" as="geometry" />
        </mxCell>
        <mxCell id="sFbhJJMdlW1VuIrdwd_y-6" value="" style="endArrow=none;html=1;rounded=0;entryX=0;entryY=0.5;entryDx=0;entryDy=0;" parent="1" target="sFbhJJMdlW1VuIrdwd_y-3" edge="1">
          <mxGeometry width="50" height="50" relative="1" as="geometry">
            <mxPoint x="280" y="260" as="sourcePoint" />
            <mxPoint x="370" y="185" as="targetPoint" />
          </mxGeometry>
        </mxCell>
        <mxCell id="sFbhJJMdlW1VuIrdwd_y-7" value="" style="endArrow=none;html=1;rounded=0;entryX=0;entryY=0.5;entryDx=0;entryDy=0;" parent="1" target="sFbhJJMdlW1VuIrdwd_y-4" edge="1">
          <mxGeometry width="50" height="50" relative="1" as="geometry">
            <mxPoint x="280" y="260" as="sourcePoint" />
            <mxPoint x="380" y="195" as="targetPoint" />
          </mxGeometry>
        </mxCell>
        <mxCell id="sFbhJJMdlW1VuIrdwd_y-8" value="" style="endArrow=none;html=1;rounded=0;entryX=0.212;entryY=0.065;entryDx=0;entryDy=0;entryPerimeter=0;" parent="1" target="sFbhJJMdlW1VuIrdwd_y-5" edge="1">
          <mxGeometry width="50" height="50" relative="1" as="geometry">
            <mxPoint x="280" y="260" as="sourcePoint" />
            <mxPoint x="390" y="205" as="targetPoint" />
          </mxGeometry>
        </mxCell>
        <mxCell id="sFbhJJMdlW1VuIrdwd_y-10" value="" style="endArrow=none;html=1;rounded=0;" parent="1" source="ylI5yJWD_dTLSHbsGG9Z-3" edge="1">
          <mxGeometry width="50" height="50" relative="1" as="geometry">
            <mxPoint x="460" y="520" as="sourcePoint" />
            <mxPoint x="400" y="440" as="targetPoint" />
          </mxGeometry>
        </mxCell>
        <mxCell id="sFbhJJMdlW1VuIrdwd_y-22" value="" style="group" parent="1" vertex="1" connectable="0">
          <mxGeometry x="250" y="530" width="222.5" height="125" as="geometry" />
        </mxCell>
        <mxCell id="sFbhJJMdlW1VuIrdwd_y-17" value="" style="endArrow=none;html=1;rounded=0;entryX=0;entryY=0.5;entryDx=0;entryDy=0;" parent="sFbhJJMdlW1VuIrdwd_y-22" target="sFbhJJMdlW1VuIrdwd_y-18" edge="1">
          <mxGeometry width="50" height="50" relative="1" as="geometry">
            <mxPoint x="40" y="90" as="sourcePoint" />
            <mxPoint x="80" y="90" as="targetPoint" />
          </mxGeometry>
        </mxCell>
        <mxCell id="sFbhJJMdlW1VuIrdwd_y-21" value="" style="group" parent="sFbhJJMdlW1VuIrdwd_y-22" vertex="1" connectable="0">
          <mxGeometry width="222.5" height="125" as="geometry" />
        </mxCell>
        <mxCell id="ylI5yJWD_dTLSHbsGG9Z-4" value="Администратор" style="shape=umlActor;verticalLabelPosition=bottom;verticalAlign=top;html=1;outlineConnect=0;" parent="sFbhJJMdlW1VuIrdwd_y-21" vertex="1">
          <mxGeometry y="60" width="30" height="60" as="geometry" />
        </mxCell>
        <mxCell id="sFbhJJMdlW1VuIrdwd_y-18" value="Работа в админ панели" style="ellipse;whiteSpace=wrap;html=1;" parent="sFbhJJMdlW1VuIrdwd_y-21" vertex="1">
          <mxGeometry x="117.5" y="55" width="105" height="70" as="geometry" />
        </mxCell>
        <mxCell id="sFbhJJMdlW1VuIrdwd_y-25" value="Посетить сайт компании" style="ellipse;whiteSpace=wrap;html=1;" parent="1" vertex="1">
          <mxGeometry x="485" y="220" width="90" height="60" as="geometry" />
        </mxCell>
        <mxCell id="sFbhJJMdlW1VuIrdwd_y-26" value="Прикрепить свое резюме" style="ellipse;whiteSpace=wrap;html=1;" parent="1" vertex="1">
          <mxGeometry x="617.5" y="350" width="90" height="60" as="geometry" />
        </mxCell>
        <mxCell id="sFbhJJMdlW1VuIrdwd_y-32" value="Выход из личного кабинета" style="ellipse;whiteSpace=wrap;html=1;" parent="1" vertex="1">
          <mxGeometry x="597.5" y="450" width="90" height="60" as="geometry" />
        </mxCell>
        <mxCell id="sFbhJJMdlW1VuIrdwd_y-40" value="" style="group" parent="1" vertex="1" connectable="0">
          <mxGeometry x="250" y="-30" width="222.5" height="125" as="geometry" />
        </mxCell>
        <mxCell id="sFbhJJMdlW1VuIrdwd_y-41" value="" style="endArrow=none;html=1;rounded=0;entryX=0;entryY=0.5;entryDx=0;entryDy=0;" parent="sFbhJJMdlW1VuIrdwd_y-40" target="sFbhJJMdlW1VuIrdwd_y-45" edge="1">
          <mxGeometry width="50" height="50" relative="1" as="geometry">
            <mxPoint x="40" y="90" as="sourcePoint" />
            <mxPoint x="80" y="90" as="targetPoint" />
          </mxGeometry>
        </mxCell>
        <mxCell id="sFbhJJMdlW1VuIrdwd_y-43" value="" style="group" parent="sFbhJJMdlW1VuIrdwd_y-40" vertex="1" connectable="0">
          <mxGeometry width="222.5" height="125" as="geometry" />
        </mxCell>
        <mxCell id="sFbhJJMdlW1VuIrdwd_y-44" value="Работодатель" style="shape=umlActor;verticalLabelPosition=bottom;verticalAlign=top;html=1;outlineConnect=0;" parent="sFbhJJMdlW1VuIrdwd_y-43" vertex="1">
          <mxGeometry y="60" width="30" height="60" as="geometry" />
        </mxCell>
        <mxCell id="sFbhJJMdlW1VuIrdwd_y-45" value="Работа в личном кабинете" style="ellipse;whiteSpace=wrap;html=1;" parent="sFbhJJMdlW1VuIrdwd_y-43" vertex="1">
          <mxGeometry x="117.5" y="55" width="105" height="70" as="geometry" />
        </mxCell>
        <mxCell id="sFbhJJMdlW1VuIrdwd_y-48" value="" style="endArrow=classic;html=1;rounded=0;dashed=1;entryX=0.08;entryY=0.82;entryDx=0;entryDy=0;exitX=1;exitY=0.5;exitDx=0;exitDy=0;entryPerimeter=0;" parent="1" source="sFbhJJMdlW1VuIrdwd_y-45" target="sFbhJJMdlW1VuIrdwd_y-49" edge="1">
          <mxGeometry width="50" height="50" relative="1" as="geometry">
            <mxPoint x="472.5" y="50" as="sourcePoint" />
            <mxPoint x="630.5" y="-60" as="targetPoint" />
          </mxGeometry>
        </mxCell>
        <mxCell id="sFbhJJMdlW1VuIrdwd_y-49" value="Выход из личного кабинета" style="ellipse;whiteSpace=wrap;html=1;" parent="1" vertex="1">
          <mxGeometry x="585" y="-100" width="90" height="60" as="geometry" />
        </mxCell>
        <mxCell id="sFbhJJMdlW1VuIrdwd_y-51" value="Публикация вакансий&lt;span style=&quot;color: rgba(0, 0, 0, 0); font-family: monospace; font-size: 0px; text-align: start; text-wrap: nowrap;&quot;&gt;%3CmxGraphModel%3E%3Croot%3E%3CmxCell%20id%3D%220%22%2F%3E%3CmxCell%20id%3D%221%22%20parent%3D%220%22%2F%3E%3CmxCell%20id%3D%222%22%20value%3D%22%D0%92%D1%8B%D1%85%D0%BE%D0%B4%20%D0%B8%D0%B7%20%D0%BB%D0%B8%D1%87%D0%BD%D0%BE%D0%B3%D0%BE%20%D0%BA%D0%B0%D0%B1%D0%B8%D0%BD%D0%B5%D1%82%D0%B0%22%20style%3D%22ellipse%3BwhiteSpace%3Dwrap%3Bhtml%3D1%3B%22%20vertex%3D%221%22%20parent%3D%221%22%3E%3CmxGeometry%20x%3D%22585%22%20y%3D%22620%22%20width%3D%2290%22%20height%3D%2260%22%20as%3D%22geometry%22%2F%3E%3C%2FmxCell%3E%3C%2Froot%3E%3C%2FmxGraphModel%3E&lt;/span&gt;" style="ellipse;whiteSpace=wrap;html=1;" parent="1" vertex="1">
          <mxGeometry x="660" y="-60" width="90" height="60" as="geometry" />
        </mxCell>
        <mxCell id="sFbhJJMdlW1VuIrdwd_y-52" value="Создание и редактирование вакансий" style="ellipse;whiteSpace=wrap;html=1;" parent="1" vertex="1">
          <mxGeometry x="687.5" y="12.5" width="101.25" height="67.5" as="geometry" />
        </mxCell>
        <mxCell id="sFbhJJMdlW1VuIrdwd_y-53" value="Просматривать присланные резюме" style="ellipse;whiteSpace=wrap;html=1;" parent="1" vertex="1">
          <mxGeometry x="670" y="95" width="101.25" height="67.5" as="geometry" />
        </mxCell>
        <mxCell id="sFbhJJMdlW1VuIrdwd_y-55" value="" style="endArrow=classic;html=1;rounded=0;dashed=1;entryX=-0.013;entryY=0.649;entryDx=0;entryDy=0;exitX=1;exitY=0.5;exitDx=0;exitDy=0;entryPerimeter=0;" parent="1" source="sFbhJJMdlW1VuIrdwd_y-45" target="sFbhJJMdlW1VuIrdwd_y-51" edge="1">
          <mxGeometry width="50" height="50" relative="1" as="geometry">
            <mxPoint x="482" y="70" as="sourcePoint" />
            <mxPoint x="602" y="-41" as="targetPoint" />
          </mxGeometry>
        </mxCell>
        <mxCell id="sFbhJJMdlW1VuIrdwd_y-56" value="" style="endArrow=classic;html=1;rounded=0;dashed=1;entryX=0;entryY=0.5;entryDx=0;entryDy=0;exitX=1;exitY=0.5;exitDx=0;exitDy=0;" parent="1" source="sFbhJJMdlW1VuIrdwd_y-45" target="sFbhJJMdlW1VuIrdwd_y-52" edge="1">
          <mxGeometry width="50" height="50" relative="1" as="geometry">
            <mxPoint x="480" y="60" as="sourcePoint" />
            <mxPoint x="669" y="-11" as="targetPoint" />
          </mxGeometry>
        </mxCell>
        <mxCell id="sFbhJJMdlW1VuIrdwd_y-57" value="" style="endArrow=classic;html=1;rounded=0;dashed=1;entryX=0;entryY=0.444;entryDx=0;entryDy=0;exitX=1;exitY=0.5;exitDx=0;exitDy=0;entryPerimeter=0;" parent="1" source="sFbhJJMdlW1VuIrdwd_y-45" target="sFbhJJMdlW1VuIrdwd_y-53" edge="1">
          <mxGeometry width="50" height="50" relative="1" as="geometry">
            <mxPoint x="492" y="80" as="sourcePoint" />
            <mxPoint x="679" y="-1" as="targetPoint" />
          </mxGeometry>
        </mxCell>
        <mxCell id="sFbhJJMdlW1VuIrdwd_y-58" value="" style="endArrow=classic;html=1;rounded=0;dashed=1;entryX=0.004;entryY=0.385;entryDx=0;entryDy=0;exitX=1;exitY=0.5;exitDx=0;exitDy=0;entryPerimeter=0;" parent="1" source="sFbhJJMdlW1VuIrdwd_y-53" target="sFbhJJMdlW1VuIrdwd_y-59" edge="1">
          <mxGeometry width="50" height="50" relative="1" as="geometry">
            <mxPoint x="850" y="110" as="sourcePoint" />
            <mxPoint x="680" y="120" as="targetPoint" />
          </mxGeometry>
        </mxCell>
        <mxCell id="sFbhJJMdlW1VuIrdwd_y-59" value="Отвергать/ одобрять присланные отклики" style="ellipse;whiteSpace=wrap;html=1;" parent="1" vertex="1">
          <mxGeometry x="850" y="95" width="101.25" height="67.5" as="geometry" />
        </mxCell>
        <mxCell id="sFbhJJMdlW1VuIrdwd_y-60" value="&lt;span style=&quot;font-family: &amp;quot;Times New Roman&amp;quot;, serif; color: windowtext;&quot; lang=&quot;RU&quot;&gt;&lt;font style=&quot;font-size: 12px;&quot;&gt;«include»&lt;/font&gt;&lt;/span&gt;" style="text;html=1;align=center;verticalAlign=middle;whiteSpace=wrap;rounded=0;rotation=15;" parent="1" vertex="1">
          <mxGeometry x="585" y="80" width="60" height="30" as="geometry" />
        </mxCell>
        <mxCell id="sFbhJJMdlW1VuIrdwd_y-62" value="&lt;span style=&quot;font-family: &amp;quot;Times New Roman&amp;quot;, serif; color: windowtext;&quot; lang=&quot;RU&quot;&gt;&lt;font style=&quot;font-size: 12px;&quot;&gt;«include»&lt;/font&gt;&lt;/span&gt;" style="text;html=1;align=center;verticalAlign=middle;whiteSpace=wrap;rounded=0;rotation=-45;" parent="1" vertex="1">
          <mxGeometry x="500" y="-27.5" width="60" height="30" as="geometry" />
        </mxCell>
        <mxCell id="sFbhJJMdlW1VuIrdwd_y-63" value="&lt;span style=&quot;font-family: &amp;quot;Times New Roman&amp;quot;, serif; color: windowtext;&quot; lang=&quot;RU&quot;&gt;&lt;font style=&quot;font-size: 12px;&quot;&gt;«include»&lt;/font&gt;&lt;/span&gt;" style="text;html=1;align=center;verticalAlign=middle;whiteSpace=wrap;rounded=0;rotation=-25;" parent="1" vertex="1">
          <mxGeometry x="557.5" y="-17.5" width="60" height="30" as="geometry" />
        </mxCell>
        <mxCell id="sFbhJJMdlW1VuIrdwd_y-65" value="&lt;span style=&quot;font-family: &amp;quot;Times New Roman&amp;quot;, serif; color: windowtext;&quot; lang=&quot;RU&quot;&gt;&lt;font style=&quot;font-size: 12px;&quot;&gt;«include»&lt;/font&gt;&lt;/span&gt;" style="text;html=1;align=center;verticalAlign=middle;whiteSpace=wrap;rounded=0;rotation=0;" parent="1" vertex="1">
          <mxGeometry x="590" y="30" width="60" height="30" as="geometry" />
        </mxCell>
        <mxCell id="sFbhJJMdlW1VuIrdwd_y-71" value="Ответы на обратную связь" style="ellipse;whiteSpace=wrap;html=1;" parent="1" vertex="1">
          <mxGeometry x="687.5" y="530" width="101.25" height="67.5" as="geometry" />
        </mxCell>
        <mxCell id="sFbhJJMdlW1VuIrdwd_y-72" value="Удаление повторных или некорректных вакансий" style="ellipse;whiteSpace=wrap;html=1;" parent="1" vertex="1">
          <mxGeometry x="660" y="630" width="101.25" height="67.5" as="geometry" />
        </mxCell>
        <mxCell id="sFbhJJMdlW1VuIrdwd_y-73" value="" style="endArrow=classic;html=1;rounded=0;dashed=1;entryX=-0.02;entryY=0.6;entryDx=0;entryDy=0;exitX=1.005;exitY=0.469;exitDx=0;exitDy=0;entryPerimeter=0;exitPerimeter=0;" parent="1" source="sFbhJJMdlW1VuIrdwd_y-18" target="sFbhJJMdlW1VuIrdwd_y-71" edge="1">
          <mxGeometry width="50" height="50" relative="1" as="geometry">
            <mxPoint x="467" y="605" as="sourcePoint" />
            <mxPoint x="648" y="492" as="targetPoint" />
          </mxGeometry>
        </mxCell>
        <mxCell id="sFbhJJMdlW1VuIrdwd_y-76" value="&lt;span style=&quot;font-family: &amp;quot;Times New Roman&amp;quot;, serif; color: windowtext;&quot; lang=&quot;RU&quot;&gt;&lt;font style=&quot;font-size: 12px;&quot;&gt;«include»&lt;/font&gt;&lt;/span&gt;" style="text;html=1;align=center;verticalAlign=middle;whiteSpace=wrap;rounded=0;rotation=15;" parent="1" vertex="1">
          <mxGeometry x="551.88" y="620" width="60" height="30" as="geometry" />
        </mxCell>
        <mxCell id="sFbhJJMdlW1VuIrdwd_y-77" value="" style="endArrow=classic;html=1;rounded=0;dashed=1;entryX=0;entryY=0.5;entryDx=0;entryDy=0;exitX=0.998;exitY=0.465;exitDx=0;exitDy=0;exitPerimeter=0;" parent="1" source="sFbhJJMdlW1VuIrdwd_y-18" target="sFbhJJMdlW1VuIrdwd_y-72" edge="1">
          <mxGeometry width="50" height="50" relative="1" as="geometry">
            <mxPoint x="487" y="625" as="sourcePoint" />
            <mxPoint x="668" y="512" as="targetPoint" />
          </mxGeometry>
        </mxCell>
        <mxCell id="sFbhJJMdlW1VuIrdwd_y-78" value="&lt;span style=&quot;font-family: &amp;quot;Times New Roman&amp;quot;, serif; color: windowtext;&quot; lang=&quot;RU&quot;&gt;&lt;font style=&quot;font-size: 12px;&quot;&gt;«include»&lt;/font&gt;&lt;/span&gt;" style="text;html=1;align=center;verticalAlign=middle;whiteSpace=wrap;rounded=0;rotation=-15;" parent="1" vertex="1">
          <mxGeometry x="551.88" y="567.5" width="60" height="30" as="geometry" />
        </mxCell>
        <mxCell id="AG5iA2B9TJNkX2NmSgZD-3" value="Обратиться в службу поддержки" style="ellipse;whiteSpace=wrap;html=1;" parent="1" vertex="1">
          <mxGeometry x="286" y="110" width="90" height="60" as="geometry" />
        </mxCell>
        <mxCell id="AG5iA2B9TJNkX2NmSgZD-4" value="" style="endArrow=none;html=1;rounded=0;entryX=0.408;entryY=0.993;entryDx=0;entryDy=0;entryPerimeter=0;" parent="1" target="AG5iA2B9TJNkX2NmSgZD-3" edge="1">
          <mxGeometry width="50" height="50" relative="1" as="geometry">
            <mxPoint x="280" y="260" as="sourcePoint" />
            <mxPoint x="381" y="202" as="targetPoint" />
          </mxGeometry>
        </mxCell>
        <mxCell id="AG5iA2B9TJNkX2NmSgZD-5" value="" style="endArrow=block;html=1;rounded=0;endFill=0;" parent="1" edge="1">
          <mxGeometry width="50" height="50" relative="1" as="geometry">
            <mxPoint x="270" y="120" as="sourcePoint" />
            <mxPoint x="270" y="222.9090909090909" as="targetPoint" />
          </mxGeometry>
        </mxCell>
        <mxCell id="AG5iA2B9TJNkX2NmSgZD-7" value="" style="endArrow=none;html=1;rounded=0;entryX=0;entryY=0.5;entryDx=0;entryDy=0;" parent="1" target="sFbhJJMdlW1VuIrdwd_y-25" edge="1">
          <mxGeometry width="50" height="50" relative="1" as="geometry">
            <mxPoint x="280" y="260" as="sourcePoint" />
            <mxPoint x="480" y="250" as="targetPoint" />
          </mxGeometry>
        </mxCell>
        <mxCell id="AG5iA2B9TJNkX2NmSgZD-8" value="" style="endArrow=none;html=1;rounded=0;entryX=0;entryY=0.5;entryDx=0;entryDy=0;" parent="1" target="sFbhJJMdlW1VuIrdwd_y-26" edge="1">
          <mxGeometry width="50" height="50" relative="1" as="geometry">
            <mxPoint x="400" y="440" as="sourcePoint" />
            <mxPoint x="543" y="361" as="targetPoint" />
          </mxGeometry>
        </mxCell>
        <mxCell id="AG5iA2B9TJNkX2NmSgZD-9" value="" style="endArrow=none;html=1;rounded=0;entryX=0;entryY=0.5;entryDx=0;entryDy=0;" parent="1" target="sFbhJJMdlW1VuIrdwd_y-32" edge="1">
          <mxGeometry width="50" height="50" relative="1" as="geometry">
            <mxPoint x="400" y="440" as="sourcePoint" />
            <mxPoint x="500.50923891889556" y="490.16334613125855" as="targetPoint" />
          </mxGeometry>
        </mxCell>
        <mxCell id="AG5iA2B9TJNkX2NmSgZD-14" value="&lt;span style=&quot;font-family: &amp;quot;Times New Roman&amp;quot;, serif; color: windowtext;&quot; lang=&quot;RU&quot;&gt;&lt;font style=&quot;font-size: 12px;&quot;&gt;«include»&lt;/font&gt;&lt;/span&gt;" style="text;html=1;align=center;verticalAlign=middle;whiteSpace=wrap;rounded=0;rotation=-10;" parent="1" vertex="1">
          <mxGeometry x="771.25" y="95" width="60" height="30" as="geometry" />
        </mxCell>
      </root>
    </mxGraphModel>
  </diagram>
</mxfile>
